<?xml version="1.0" encoding="iso-8859-1"?>
<!-- Uploaded to: SVG Repo, www.svgrepo.com, Generator: SVG Repo Mixer Tools -->
<svg fill="#000000" height="800px" width="800px" version="1.1" id="Layer_1" xmlns="http://www.w3.org/2000/svg" xmlns:xlink="http://www.w3.org/1999/xlink" 
	 viewBox="0 0 512 512" xml:space="preserve">
<g>
	<g>
		<g>
			<path d="M495.304,101.658H351.196V60.224c0-9.22-7.475-16.696-16.696-16.696H177.499c-9.22,0-16.696,7.475-16.696,16.696v41.433
				H16.696C7.48,101.657,0,109.137,0,118.353v138.574h197.754v-21.871c0-9.216,7.48-16.696,16.696-16.696h83.1
				c9.216,0,16.696,7.48,16.696,16.696v21.871H512V118.353C512,109.137,504.52,101.658,495.304,101.658z M317.806,101.657H194.195
				V76.92h123.611V101.657z"/>
			<path d="M314.246,297.43c0,32.111-26.134,58.234-58.246,58.234c-32.111,0-58.246-26.123-58.246-58.234v-7.112H17.018v161.458
				c0,9.216,7.48,16.696,16.696,16.696h444.572c9.216,0,16.696-7.48,16.696-16.696V290.318H314.246V297.43z"/>
		</g>
	</g>
</g>
</svg>