<!DOCTYPE svg PUBLIC "-//W3C//DTD SVG 1.1//EN" "http://www.w3.org/Graphics/SVG/1.1/DTD/svg11.dtd">
<!-- Uploaded to: SVG Repo, www.svgrepo.com, Transformed by: SVG Repo Mixer Tools -->
<svg width="256px" height="256px" viewBox="0 0 48 48" xmlns="http://www.w3.org/2000/svg" fill="#61ae74" stroke="#61ae74">
<g id="SVGRepo_bgCarrier" stroke-width="0"/>
<g id="SVGRepo_tracerCarrier" stroke-linecap="round" stroke-linejoin="round"/>
<g id="SVGRepo_iconCarrier">
<defs>
<style>.a{fill:none;stroke:#358d64;stroke-linecap:round;stroke-linejoin:round;}</style>
</defs>
<path class="a" d="M24,4.5,8.954,15.1047,24,25.944"/>
<path class="a" d="M8.8523,17.0785,6.8054,18.5212,21.8514,29.36"/>
<path class="a" d="M21.8514,29.36,24,30.9083"/>
<path class="a" d="M8.954,23.3664,24,34.2057"/>
<path class="a" d="M8.954,27.6723,24,38.5115"/>
<path class="a" d="M8.954,32.6608,24,43.5"/>
<path class="a" d="M8.954,15.1047V32.6608"/>
<path class="a" d="M24,25.944v4.9643"/>
<path class="a" d="M24,4.5,39.046,15.1047,24,25.944"/>
<path class="a" d="M39.171,17.0949l2.0236,1.4263L26.1486,29.36"/>
<path class="a" d="M26.1486,29.36,24,30.9083"/>
<path class="a" d="M39.046,23.3664,24,34.2057"/>
<path class="a" d="M39.046,27.6723,24,38.5115"/>
<path class="a" d="M39.046,32.6608,24,43.5"/>
<path class="a" d="M39.046,15.1047V32.6608"/>
<path class="a" d="M24,25.944v4.9643"/>
<path class="a" d="M24,30.9083V43.5"/>
</g>
</svg>